<?xml version="1.0" standalone="no"?>
<!DOCTYPE svg PUBLIC "-//W3C//DTD SVG 20010904//EN"
 "http://www.w3.org/TR/2001/REC-SVG-20010904/DTD/svg10.dtd">
<svg version="1.0" xmlns="http://www.w3.org/2000/svg"
 width="1459.000000pt" height="627.000000pt" viewBox="0 0 1459.000000 627.000000"
 preserveAspectRatio="xMidYMid meet">
<metadata>
Created by potrace 1.15, written by Peter Selinger 2001-2017
</metadata>
<g transform="translate(0.000000,627.000000) scale(0.100000,-0.100000)"
fill="#FFCC66" stroke="none">
<path d="M2490 6253 c-19 -10 -56 -45 -83 -78 -45 -56 -48 -63 -42 -100 4 -22
7 -60 6 -85 -4 -181 -24 -658 -31 -765 -28 -371 -60 -1074 -60 -1306 0 -103
-3 -129 -16 -140 -10 -8 -68 -15 -177 -20 -89 -4 -193 -12 -232 -17 -38 -6
-112 -16 -164 -22 -57 -6 -99 -16 -105 -25 -13 -16 -213 -75 -256 -75 -20 0
-35 8 -46 25 -14 22 -15 64 -5 452 6 235 20 577 31 758 10 182 24 422 30 535
6 113 15 271 20 352 10 161 4 218 -31 293 -29 61 -72 103 -115 111 -27 5 -47
0 -92 -22 -48 -25 -61 -37 -84 -82 -26 -52 -27 -57 -21 -185 6 -141 -11 -771
-29 -1027 -6 -85 -14 -258 -18 -385 -16 -489 -31 -861 -36 -883 -6 -31 -67
-57 -198 -87 -110 -25 -250 -68 -391 -120 -49 -18 -126 -40 -170 -50 -125 -26
-153 -41 -166 -89 -16 -59 -6 -205 17 -252 29 -59 61 -66 132 -27 31 17 68 34
82 38 14 4 79 31 145 60 66 28 214 83 328 120 174 57 210 66 218 54 6 -8 8
-63 5 -134 -21 -460 -28 -1078 -17 -1620 12 -620 11 -616 75 -950 39 -201 49
-235 67 -235 23 0 87 76 98 115 6 26 10 241 10 600 0 528 7 701 30 780 5 17
12 161 16 320 3 160 13 335 21 390 8 63 16 229 19 450 4 287 8 353 20 372 9
13 22 23 30 23 17 0 45 27 45 44 0 8 -14 16 -32 20 -27 5 -30 8 -17 20 7 7 52
23 99 35 79 21 169 48 280 84 59 20 167 35 321 47 70 5 145 12 168 16 25 4 41
3 41 -4 0 -20 -56 -29 -229 -35 -47 -2 -76 -8 -79 -15 -2 -8 10 -12 37 -12 22
0 43 -4 46 -10 8 -13 45 -13 45 0 0 6 45 10 115 10 103 0 115 -2 125 -19 13
-25 13 -311 0 -701 -7 -197 -7 -436 0 -720 11 -448 22 -636 44 -735 72 -327
89 -404 98 -427 21 -57 67 -43 95 29 21 57 22 143 7 670 -6 205 -6 427 -1 555
5 117 10 319 12 448 2 129 8 380 12 557 8 317 8 323 31 345 22 23 28 23 335
30 278 6 399 15 428 33 15 10 10 51 -8 67 -31 27 -101 58 -131 58 -16 0 -41
-9 -55 -20 l-26 -21 -29 32 c-31 35 -54 39 -346 59 -183 13 -191 16 -180 78 4
26 8 103 9 172 2 117 11 333 35 800 25 473 31 571 45 675 17 127 37 389 39
520 1 80 -2 97 -28 152 -46 100 -98 130 -166 96z m-10 -1696 c-6 -43 -8 -86
-5 -96 3 -11 0 -86 -6 -168 -7 -81 -11 -177 -10 -213 4 -96 -10 -290 -20 -290
-17 0 -10 286 18 710 26 401 28 417 31 280 2 -80 -2 -180 -8 -223z m-1318
-637 c-3 -213 -9 -303 -23 -294 -10 6 -12 445 -3 494 6 29 8 30 17 14 7 -12
10 -93 9 -214z m1279 -781 c-1 -184 -5 -440 -11 -569 -5 -129 -7 -347 -4 -485
4 -193 3 -246 -6 -231 -9 13 -11 212 -7 800 4 694 8 838 24 823 2 -3 4 -155 4
-338z m-1292 -146 c-1 -142 -5 -355 -9 -473 -5 -118 -13 -480 -19 -805 -6
-324 -13 -600 -16 -613 -3 -13 -10 -20 -15 -17 -13 8 -12 513 1 1020 5 209 13
544 18 745 5 201 12 373 16 383 20 48 25 -4 24 -240z"/>
<path d="M8780 6089 c-39 -16 -59 -39 -71 -82 -7 -26 -26 -55 -54 -81 -37 -35
-46 -52 -65 -121 -11 -44 -45 -156 -75 -250 -71 -226 -92 -310 -170 -700 -36
-181 -68 -340 -70 -352 -7 -29 -22 -31 -280 -43 -115 -5 -267 -13 -337 -16
l-127 -7 -12 27 c-17 38 12 428 56 750 87 638 89 723 12 794 -35 33 -116 40
-182 15 -88 -33 -123 -115 -190 -448 -41 -206 -104 -608 -144 -919 -20 -155
-34 -233 -44 -243 -26 -26 -178 -36 -482 -30 -160 4 -300 4 -312 1 -64 -17
-52 -204 17 -271 29 -29 37 -30 143 -37 62 -4 119 -7 127 -7 8 0 108 4 222 7
183 6 211 5 233 -10 16 -11 25 -26 25 -44 0 -15 -15 -196 -34 -402 -68 -727
-69 -747 -73 -1190 -6 -583 9 -820 81 -1270 8 -52 21 -140 30 -195 26 -176
164 -568 263 -744 48 -87 154 -193 209 -209 23 -7 78 -12 122 -12 70 0 83 3
92 19 19 37 12 48 -33 55 -59 9 -99 36 -151 103 -61 77 -111 181 -141 294 -13
51 -36 110 -51 132 -19 29 -24 47 -20 68 8 39 -11 37 -22 -2 -7 -30 -9 -27
-40 63 -31 88 -61 223 -62 276 l0 22 39 -26 c51 -33 65 -25 57 35 -25 177 -36
290 -36 381 0 58 -7 168 -15 245 -18 172 -21 1036 -4 1131 6 32 29 100 51 149
47 103 105 365 138 621 64 502 68 521 118 543 31 15 164 37 272 46 115 10 301
46 342 67 37 18 104 25 94 10 -11 -19 -117 -922 -136 -1157 -25 -325 -25 -323
-111 -500 -52 -108 -91 -174 -118 -202 -61 -63 -53 -97 30 -133 35 -15 63 -20
86 -17 l33 6 0 -460 c0 -522 -4 -493 83 -558 97 -72 134 -83 187 -56 30 16 44
49 54 125 6 51 42 134 193 440 113 227 148 290 162 290 5 0 11 -84 13 -188 5
-217 12 -243 93 -367 67 -103 101 -132 231 -197 92 -46 114 -53 163 -52 36 1
70 8 96 22 98 50 257 228 411 462 46 69 96 144 112 167 l29 42 7 -114 c10
-173 39 -260 135 -414 65 -103 64 -102 214 -146 106 -31 190 -4 356 114 53 37
105 73 117 79 11 6 70 51 131 99 164 130 342 355 472 597 28 51 51 99 51 106
0 6 9 23 20 37 l20 26 0 -134 c-1 -190 -16 -518 -30 -621 -11 -80 -10 -91 11
-147 16 -45 27 -61 41 -61 10 0 37 -17 61 -39 23 -21 52 -43 64 -50 24 -12 61
-3 81 22 22 26 50 142 67 279 28 226 54 334 130 554 182 522 284 727 597 1207
99 152 254 317 297 317 44 0 86 -44 136 -145 28 -55 57 -101 66 -103 29 -5 59
30 65 79 12 90 -45 218 -115 257 -52 29 -202 55 -287 50 -103 -7 -169 -41
-271 -141 -156 -151 -268 -323 -449 -686 -100 -201 -113 -222 -123 -203 -6 11
-14 49 -17 84 -8 89 -21 124 -55 153 -61 50 -209 23 -244 -45 -9 -17 -21 -73
-26 -123 -6 -51 -12 -111 -15 -134 -4 -30 -14 -50 -40 -75 -20 -18 -44 -53
-55 -76 -10 -24 -67 -108 -126 -185 -286 -381 -447 -556 -645 -705 -112 -84
-184 -120 -273 -135 -110 -19 -135 14 -155 201 -13 114 -9 211 11 327 15 88
18 91 68 71 49 -19 118 -20 186 -3 45 12 57 22 128 108 57 69 95 128 142 224
123 251 164 398 145 520 -23 143 -75 233 -171 291 -56 34 -64 36 -127 32 -81
-5 -129 -27 -186 -84 -48 -48 -116 -169 -116 -208 0 -23 2 -25 26 -16 29 11
44 6 44 -17 0 -21 -80 -173 -91 -173 -5 0 -9 -9 -9 -19 0 -45 -42 -157 -68
-180 l-27 -24 -3 24 c-10 91 -34 93 -61 5 -11 -35 -23 -81 -27 -101 -5 -26
-37 -77 -103 -162 -53 -68 -148 -195 -211 -282 -136 -187 -207 -276 -313 -391
-101 -109 -140 -133 -220 -134 l-62 -1 -20 40 c-17 34 -20 64 -23 200 -3 154
3 235 44 553 17 133 18 236 4 263 -7 12 -21 19 -38 19 -32 0 -51 13 -75 53
-19 29 -49 35 -89 16 -47 -21 -257 -324 -397 -572 -40 -70 -83 -140 -96 -155
l-23 -27 -12 30 c-10 24 -9 59 5 177 13 107 16 170 10 235 -21 232 -9 298 124
705 159 483 291 957 346 1241 18 92 36 171 40 175 10 10 165 3 186 -8 28 -15
102 -12 127 6 22 15 30 58 13 69 -5 3 -30 1 -56 -5 -33 -7 -77 -7 -153 2
l-108 12 32 189 c78 459 134 918 137 1130 2 127 0 147 -20 189 -13 29 -33 52
-52 62 -34 18 -93 20 -131 5z m-42 -773 c-51 -366 -126 -797 -142 -813 -2 -3
-23 -7 -46 -10 -38 -5 -42 -4 -37 13 3 10 22 102 42 204 70 355 144 659 168
688 18 23 24 -13 15 -82z m-225 -1163 c-46 -188 -83 -297 -95 -285 -8 8 2 94
48 379 5 32 7 33 70 42 8 0 -1 -49 -23 -136z m-150 50 c-2 -27 -11 -79 -19
-118 -17 -88 -37 -235 -65 -485 -20 -186 -37 -276 -38 -205 -1 29 15 189 39
400 6 55 17 132 25 170 8 39 17 108 20 155 7 103 13 130 30 130 9 0 11 -13 8
-47z m-1123 -225 c0 -51 -7 -136 -15 -188 -8 -52 -24 -189 -35 -305 -11 -115
-27 -257 -35 -315 -8 -58 -15 -131 -15 -163 0 -72 -20 -197 -31 -197 -8 0 -12
13 -24 72 -1 9 3 50 11 90 8 40 14 108 14 150 0 43 9 148 20 235 11 87 25 237
30 333 6 96 19 218 30 270 11 52 20 98 20 103 0 4 7 7 15 7 12 0 15 -17 15
-92z m5070 -613 c0 -10 -69 -141 -121 -230 -28 -49 -82 -146 -119 -215 -37
-69 -89 -163 -115 -210 -26 -47 -75 -136 -109 -198 -33 -62 -65 -113 -71 -112
-5 1 -9 7 -7 15 1 7 -4 15 -13 19 -25 9 -18 75 14 141 l29 60 1 -37 c1 -41 16
-57 36 -37 8 8 30 55 50 104 52 126 153 336 215 447 70 125 169 258 192 258
10 0 18 -2 18 -5z m-1819 -441 c1 -108 -49 -222 -182 -420 -49 -73 -131 -154
-156 -154 -18 0 -12 34 24 135 13 39 39 113 57 165 18 52 43 115 56 140 24 48
93 144 144 198 42 45 57 28 57 -64z m868 -493 l1 -124 -53 -66 c-70 -87 -195
-253 -237 -315 -18 -27 -59 -79 -91 -117 -88 -102 -333 -278 -355 -256 -5 4
28 45 72 90 45 45 103 111 130 146 27 35 67 76 90 91 29 21 56 56 97 128 31
55 57 104 57 109 0 5 33 59 73 120 85 131 159 258 170 293 5 14 14 36 20 49
l12 23 6 -23 c4 -13 7 -80 8 -148z"/>
<path d="M3641 4108 c-55 -30 -64 -56 -77 -235 -16 -211 -18 -454 -3 -486 25
-54 105 -71 142 -29 31 36 197 500 197 551 0 57 -28 138 -59 174 -27 29 -34
32 -102 35 -47 2 -83 -2 -98 -10z"/>
<path d="M13335 3238 c-47 -17 -110 -66 -143 -111 -43 -60 -82 -142 -82 -171
0 -23 2 -25 26 -16 29 11 44 6 44 -17 0 -21 -80 -173 -91 -173 -5 0 -9 -10 -9
-21 0 -12 -20 -82 -45 -157 -33 -99 -45 -151 -45 -194 0 -35 -7 -72 -16 -91
-9 -17 -27 -61 -40 -97 l-24 -65 5 87 c4 48 19 142 36 208 36 152 37 200 3
200 -19 0 -49 -105 -91 -324 -34 -180 -36 -203 -37 -396 -1 -266 15 -337 113
-495 86 -139 82 -136 234 -180 106 -31 190 -4 356 114 53 37 105 73 117 79 11
6 70 51 131 99 164 130 342 355 472 597 28 51 51 99 51 105 0 7 11 27 25 45
43 56 27 60 -18 4 -59 -73 -216 -283 -257 -342 -18 -27 -59 -79 -91 -117 -88
-102 -333 -278 -355 -256 -5 4 28 45 72 90 45 45 103 111 130 146 27 35 67 76
90 91 29 21 56 56 97 128 31 55 57 104 57 109 0 5 33 59 73 120 101 157 167
273 174 307 3 15 23 45 44 65 42 40 68 96 52 112 -15 15 -61 -38 -69 -77 -3
-19 -20 -47 -41 -66 -19 -18 -43 -53 -54 -76 -10 -24 -67 -108 -126 -185 -286
-381 -447 -556 -645 -705 -112 -84 -184 -120 -273 -135 -110 -19 -135 14 -155
201 -13 114 -9 211 11 327 15 88 18 91 68 71 49 -19 118 -20 186 -3 45 12 57
22 128 108 57 69 95 128 142 224 123 251 164 398 145 520 -23 142 -76 233
-169 290 -50 30 -67 35 -117 34 -33 0 -72 -5 -89 -11z m136 -314 c1 -108 -49
-222 -182 -420 -49 -73 -131 -154 -156 -154 -18 0 -12 34 24 135 13 39 39 113
57 165 18 52 43 115 56 140 24 48 93 144 144 198 42 45 57 28 57 -64z"/>
<path d="M3584 3019 c-41 -12 -90 -68 -103 -116 -8 -34 -18 -128 -62 -602 -6
-65 -9 -235 -6 -400 5 -311 16 -391 72 -501 70 -139 220 -232 344 -215 25 4
82 21 126 38 l79 32 83 125 c45 69 95 143 110 165 16 22 38 61 50 88 12 26 36
67 53 91 16 25 30 50 30 56 0 7 11 25 25 42 26 30 33 58 15 58 -5 0 -10 -7
-10 -16 0 -17 -103 -124 -120 -124 -5 0 -10 9 -10 20 0 19 341 703 361 725 6
6 20 5 40 -2 29 -11 31 -10 44 22 19 44 35 177 24 190 -6 6 -25 1 -53 -13 -41
-22 -51 -37 -181 -280 -266 -494 -397 -706 -492 -795 -31 -28 -82 -77 -114
-108 -56 -55 -108 -89 -135 -89 -20 0 -50 66 -63 135 -33 178 6 779 69 1065
33 150 41 204 43 267 2 56 -1 64 -28 93 -17 17 -50 37 -79 45 -55 17 -67 17
-112 4z"/>
<path d="M4744 1779 c-40 -11 -43 -25 -32 -124 12 -102 3 -335 -17 -446 -32
-180 -116 -421 -264 -755 -24 -55 -41 -111 -43 -140 -3 -45 -1 -49 25 -58 25
-9 40 -5 114 34 50 27 100 62 121 86 48 53 180 274 231 385 109 236 138 392
127 669 -6 147 -9 170 -31 216 -26 53 -82 106 -140 130 -38 16 -47 16 -91 3z"/>
</g>
</svg>
